HIERARCHY
ROOT hip
{
	OFFSET 0.000000 0.000000 0.000000 
	CHANNELS 6 Xposition Yposition Zposition Xrotation Zrotation Yrotation
	JOINT abdomen
	{
		OFFSET 0.000000 3.402643 0.000000 
		CHANNELS 3 Xrotation Zrotation Yrotation
		JOINT chest
		{
			OFFSET 0.000000 8.438565 -0.680529 
			CHANNELS 3 Xrotation Zrotation Yrotation
			JOINT neck
			{
				OFFSET 0.000000 10.207942 -0.272212 
				CHANNELS 3 Xrotation Zrotation Yrotation
				JOINT head
				{
					OFFSET 0.000000 3.130431 0.000000 
					CHANNELS 3 Xrotation Zrotation Yrotation
					End Site
					{
						OFFSET 0.000000 3.130435 0.000000 
					}
				}
			}
			JOINT lCollar
			{
				OFFSET 3.470700 6.669187 -0.816635 
				CHANNELS 3 Yrotation Zrotation Xrotation
				JOINT lShldr
				{
					OFFSET 3.198488 0.000000 0.000000 
					CHANNELS 3 Zrotation Yrotation Xrotation
					JOINT lForeArm
					{
						OFFSET 10.139888 0.000000 0.000000 
						CHANNELS 3 Yrotation Zrotation Xrotation
						JOINT lHand
						{
							OFFSET 8.370511 0.000000 0.000000 
							CHANNELS 3 Zrotation Yrotation Xrotation
							End Site
							{
								OFFSET 4.083176 0.000000 0.000000 
							}
						}
					}
				}
			}
			JOINT rCollar
			{
				OFFSET -3.470700 6.669187 -0.816635 
				CHANNELS 3 Yrotation Zrotation Xrotation
				JOINT rShldr
				{
					OFFSET -3.198488 0.000000 0.000000 
					CHANNELS 3 Zrotation Yrotation Xrotation
					JOINT rForeArm
					{
						OFFSET -10.139888 0.000000 0.000000 
						CHANNELS 3 Yrotation Zrotation Xrotation
						JOINT rHand
						{
							OFFSET -8.370511 0.000000 0.000000 
							CHANNELS 3 Zrotation Yrotation Xrotation
							End Site
							{
								OFFSET -4.083176 0.000000 0.000000 
							}
						}
					}
				}
			}
		}
	}
	JOINT lThigh
	{
		OFFSET 5.308129 -1.633274 1.361059 
		CHANNELS 3 Xrotation Zrotation Yrotation
		JOINT lShin
		{
			OFFSET -2.041588 -20.007561 0.000000 
			CHANNELS 3 Xrotation Zrotation Yrotation
			JOINT lFoot
			{
				OFFSET 0.000000 -19.190928 -1.224953 
				CHANNELS 3 Xrotation Yrotation Zrotation
				End Site
				{
					OFFSET 0.000000 -2.449906 4.627600 
				}
			}
		}
	}
	JOINT rThigh
	{
		OFFSET -5.308129 -1.633274 1.361059 
		CHANNELS 3 Xrotation Zrotation Yrotation
		JOINT rShin
		{
			OFFSET 2.041588 -20.007561 0.000000 
			CHANNELS 3 Xrotation Zrotation Yrotation
			JOINT rFoot
			{
				OFFSET 0.000000 -19.190928 -1.224953 
				CHANNELS 3 Xrotation Yrotation Zrotation
				End Site
				{
					OFFSET 0.000000 -2.449906 4.627600 
				}
			}
		}
	}
}
MOTION
Frames: 11
Frame Time: 0.083333
-0.171298 53.612305 0.090100 0.000000 0.000000 -1.912946 0.166321 -0.608826 -0.722302 -0.187225 -0.631704 -4.044725 2.438003 1.124354 -0.150271 -3.385688 0.814223 3.297677 2.869452 -5.866852 -0.026428 -67.830124 4.748560 16.013943 -35.314892 -1.692691 0.377080 6.308982 -10.888138 0.325810 -1.878361 6.226380 -0.158979 70.395294 -6.983458 15.902918 38.611065 6.996244 0.058800 -4.881052 7.164729 0.271389 -7.555160 3.979720 0.146602 15.771152 -3.266582 -0.903561 -8.480395 2.977710 -0.873116 -7.908806 -4.003795 0.094887 15.544952 3.252213 0.584824 -8.050381 0.318598 0.627864 
-0.389856 53.785919 -0.192763 0.000000 0.000000 -4.280494 0.511436 -1.872139 -2.220835 -0.575962 -1.942491 -12.437764 7.496860 3.457388 -0.462083 -10.110990 2.303736 9.860356 4.627990 -6.233291 0.050053 -63.118809 -6.104370 16.060007 -61.347164 14.099656 0.851656 6.686196 -22.793720 0.492561 -1.580478 7.338724 -0.357409 71.006577 -0.468186 15.718904 71.709152 2.208191 -0.125742 -2.622545 21.672335 0.469874 -6.568800 4.099801 0.189005 13.418533 -3.145802 -0.704911 -7.090949 5.255779 -1.148822 -6.923063 -3.396604 0.093373 12.406467 3.096840 0.302300 -5.921517 2.694868 0.246661 
-0.570423 53.827888 -0.398497 0.000000 0.000000 -6.497264 0.887737 -3.249607 -3.854189 -1.000414 -3.371726 -21.589775 13.012842 6.001239 -0.802071 -16.721107 3.445915 16.341349 6.545214 -6.633121 0.133124 -57.982094 -17.938576 16.109516 -88.463669 31.317635 1.365947 7.039298 -33.938297 0.648653 -1.255680 8.551579 -0.573769 71.673096 7.358705 15.518267 107.075150 -3.012515 -0.326957 -0.159956 37.490864 0.686292 -6.299698 4.150200 0.228307 12.775176 -3.104012 -0.678032 -6.666636 7.444217 -1.246324 -6.693891 -2.838938 0.085933 11.140700 3.037254 0.195116 -4.851671 4.890656 -0.213280 
-0.619846 53.490688 -0.358731 0.000000 0.000000 -8.000000 1.064453 -3.896484 -4.619804 -1.201172 -4.042921 -25.889055 15.603218 7.195864 -0.961733 -18.068401 2.811028 17.745127 7.445036 -6.821560 0.171354 -55.570602 -23.497511 16.131029 -98.116013 39.400047 1.599766 7.327459 -43.033215 0.776037 -1.103157 9.121144 -0.675379 71.986099 12.791220 15.424051 121.926582 -5.464224 -0.421444 0.996508 44.919449 0.787922 -7.512277 4.100669 0.252107 15.704932 -3.238899 -0.954671 -8.403180 8.994082 -0.989020 -8.644914 -2.695835 0.031217 14.925400 3.207139 0.538401 -6.635023 6.286976 -0.563385 
-0.481843 52.633621 0.025827 0.000000 0.000000 -8.425762 1.064453 -3.896484 -4.616549 -1.204427 -4.042937 -25.892183 15.603214 7.195863 -0.961733 -14.068401 0.144361 14.011788 7.443826 -6.823098 0.169574 -55.572380 -23.500774 16.127069 -91.099297 39.392357 1.582238 7.327479 -43.033207 0.776019 -1.103171 9.121130 -0.675386 71.986099 16.791214 15.424067 117.926590 -5.464216 -0.421429 0.996505 44.919434 0.787915 -11.160983 4.272763 0.250870 24.461517 -3.656762 -1.795508 -13.562046 9.546165 -0.465049 -12.166872 -3.259864 -0.056567 23.367315 3.588596 1.353571 -11.520655 6.633399 -0.590668 
-0.253580 51.554516 0.568627 0.000000 0.000000 -8.260101 1.064453 -3.896484 -4.613294 -1.207682 -4.042953 -25.895309 15.603210 7.195862 -0.961733 -10.068401 -2.522305 10.278450 7.442616 -6.824635 0.167795 -55.574158 -23.504040 16.123108 -84.082581 39.384666 1.564711 7.327500 -43.033199 0.776000 -1.103186 9.121115 -0.675393 71.986099 20.791206 15.424084 113.926590 -5.464208 -0.421415 0.996503 44.919418 0.787907 -14.936222 4.204608 0.278760 33.799210 -3.930624 -2.756432 -19.222717 9.534365 0.338255 -16.181133 -3.960122 -0.079325 33.197525 3.870771 2.362771 -17.300280 6.417339 -0.595567 
-0.045367 50.612610 1.052059 0.000000 0.000000 -8.000000 1.064453 -3.896484 -4.610039 -1.210938 -4.042969 -25.898438 15.603208 7.195861 -0.961733 -6.068401 -5.188971 6.545111 7.441406 -6.826172 0.166016 -55.575932 -23.507303 16.119148 -77.065872 39.376972 1.547184 2.327499 22.966801 0.776000 -1.103200 9.121100 -0.675400 71.986099 24.791201 15.424100 109.926598 -5.464200 -0.421400 0.996500 44.919399 0.787900 -17.418169 4.067209 0.349980 40.288658 -4.025728 -3.438431 -23.291977 9.346566 1.002631 -18.802116 -4.528028 -0.022473 40.010578 3.968519 3.066928 -21.479895 6.156893 -0.521130 
-0.305496 49.765610 1.144994 0.000000 0.000000 -7.764048 1.064501 -3.895738 -4.609251 -1.210126 -4.042964 -25.897659 15.603208 7.195861 -0.961733 -5.818401 -5.355638 6.311778 7.441705 -6.825791 0.166464 -55.575485 -23.506487 16.120136 -76.653381 39.378891 1.551568 2.283429 23.548531 0.776000 -1.103200 9.121100 -0.675400 71.986099 24.791201 15.424100 109.259933 -5.464200 -16.921400 0.996500 44.919399 0.787900 -19.821257 4.581071 0.284012 45.727417 -4.033527 -4.037956 -26.290550 9.100832 0.898955 -21.088884 -4.349864 -0.100511 45.263355 3.979946 3.619100 -24.347376 5.856342 -1.079418 
-0.565623 48.918610 1.237927 0.000000 0.000000 -7.528096 1.064549 -3.894992 -4.608464 -1.209315 -4.042958 -25.896881 15.603208 7.195861 -0.961733 -5.568401 -5.522304 6.078444 7.442005 -6.825410 0.166913 -55.575043 -23.505671 16.121124 -76.240891 39.380810 1.555953 2.239358 24.130260 0.776000 -1.103200 9.121100 -0.675400 71.986099 24.791201 15.424100 108.593269 -5.464200 -33.421402 22.996500 -42.080601 -1.212097 -21.891506 5.080228 0.160028 50.449024 -4.020267 -4.534257 -28.898493 8.836292 0.757351 -23.109865 -4.146176 -0.218777 49.976086 3.940401 4.109818 -26.972713 5.572495 -1.631319 
-0.683920 48.427204 1.304706 0.000000 0.000000 -7.437331 1.064597 -3.894245 -4.607677 -1.208503 -4.042952 -25.896103 15.603208 7.195861 -0.961733 -5.318401 -5.688971 5.845111 7.442304 -6.825029 0.167362 -55.574600 -23.504854 16.122112 -75.828400 39.382729 1.560338 2.195288 24.711990 0.776000 -1.103200 9.121100 -0.675400 71.986099 24.791201 15.424100 107.926605 -5.464200 -33.421402 22.996500 -42.080601 -1.212097 -22.976694 5.311738 0.090389 52.995888 -3.984593 -4.800219 -30.348778 8.733177 0.721378 -24.277611 -4.073254 -0.291737 52.728291 3.898985 4.398070 -28.508305 5.466264 -1.921029 
-0.676695 48.174759 1.364316 0.000000 0.000000 -7.489655 1.064645 -3.893499 -4.606890 -1.207692 -4.042946 -25.895325 15.603208 7.195861 -0.961733 -5.068401 -5.855638 5.611778 7.442604 -6.824648 0.167810 -55.574154 -23.504038 16.123100 -75.415909 39.384647 1.564722 2.151217 25.293722 0.776000 -1.103200 9.121100 -0.675400 71.986099 24.791201 15.424100 107.259941 -5.464200 -33.421402 22.996500 -42.080601 -1.212098 -23.513809 5.329330 0.092216 54.347267 -3.959664 -4.947720 -31.171993 8.783840 0.804258 -24.762726 -4.129117 -0.301678 53.913181 3.870719 4.527308 -29.206238 5.518092 -1.950626 
